<?xml version="1.0" encoding="UTF-8" standalone="no"?>
<!-- Created with Inkscape (http://www.inkscape.org/) -->

<svg
   xmlns:dc="http://purl.org/dc/elements/1.1/"
   xmlns:cc="http://creativecommons.org/ns#"
   xmlns:rdf="http://www.w3.org/1999/02/22-rdf-syntax-ns#"
   xmlns:svg="http://www.w3.org/2000/svg"
   xmlns="http://www.w3.org/2000/svg"
   xmlns:sodipodi="http://sodipodi.sourceforge.net/DTD/sodipodi-0.dtd"
   xmlns:inkscape="http://www.inkscape.org/namespaces/inkscape"
   width="140.6286mm"
   height="35.518135mm"
   viewBox="0 0 140.6286 35.518135"
   version="1.1"
   id="svg8"
   sodipodi:docname="LOGO.svg"
   inkscape:version="0.92.3 (2405546, 2018-03-11)">
  <defs
     id="defs2" />
  <sodipodi:namedview
     id="base"
     pagecolor="#ffffff"
     bordercolor="#666666"
     borderopacity="1.0"
     inkscape:pageopacity="0.0"
     inkscape:pageshadow="2"
     inkscape:zoom="0.49497475"
     inkscape:cx="-37.725868"
     inkscape:cy="-272.99624"
     inkscape:document-units="mm"
     inkscape:current-layer="layer1"
     showgrid="false"
     inkscape:window-width="1600"
     inkscape:window-height="832"
     inkscape:window-x="0"
     inkscape:window-y="0"
     inkscape:window-maximized="1"
     fit-margin-top="0"
     fit-margin-left="0"
     fit-margin-right="0"
     fit-margin-bottom="0" />
  <metadata
     id="metadata5">
    <rdf:RDF>
      <cc:Work
         rdf:about="">
        <dc:format>image/svg+xml</dc:format>
        <dc:type
           rdf:resource="http://purl.org/dc/dcmitype/StillImage" />
        <dc:title></dc:title>
      </cc:Work>
    </rdf:RDF>
  </metadata>
  <g
     inkscape:label="Layer 1"
     inkscape:groupmode="layer"
     id="layer1"
     transform="translate(129.42154,-102.96331)">
    <rect
       style="opacity:1;fill:#000000;fill-opacity:1;stroke:none;stroke-width:0.56499994;stroke-linecap:round;stroke-linejoin:round;stroke-miterlimit:4;stroke-dasharray:none;stroke-opacity:1"
       id="rect843"
       width="0.26726952"
       height="0.53453904"
       x="-258.58325"
       y="70.622704"
       ry="0.13363476" />
    <g
       id="g38"
       transform="matrix(1.8516098,0,0,1.8516098,35.98482,-218.33258)"
       style="fill:#ffffff">
      <path
         transform="matrix(0.26458333,0,0,0.26458333,-129.81149,101.94835)"
         inkscape:connector-curvature="0"
         id="path23"
         d="m 152.99807,342.74847 c 0.0733,-0.14732 0.98378,-2.03571 2.02318,-4.19642 1.03941,-2.16072 2.11388,-4.35516 2.38773,-4.87654 0.27384,-0.52137 0.49789,-1.20441 0.49789,-1.51785 0,-0.31345 0.16072,-0.5699 0.35715,-0.5699 0.19642,0 0.35714,-0.32143 0.35714,-0.71429 0,-0.39285 0.16071,-0.71428 0.35714,-0.71428 0.19643,0 0.35714,-0.32143 0.35714,-0.71429 0,-0.39285 0.16072,-0.71428 0.35715,-0.71428 0.19643,0 0.35714,-0.17615 0.35714,-0.39143 0,-0.36406 2.08936,-5.08369 2.8681,-6.47873 0.1904,-0.34108 0.34619,-0.85001 0.34619,-1.13095 0,-0.28094 0.12823,-0.56437 0.28497,-0.62985 0.15673,-0.0655 0.97682,-1.56547 1.82241,-3.33333 0.84559,-1.76786 1.92271,-4.00923 2.3936,-4.98083 0.47089,-0.97161 0.85616,-1.97607 0.85616,-2.23215 0,-0.25607 0.16071,-0.46559 0.35714,-0.46559 0.19643,0 0.35714,-0.32143 0.35714,-0.71429 0,-0.39285 0.14198,-0.71428 0.31551,-0.71428 0.58249,0 0.70888,-1.9539 0.19413,-3.0013 -0.2803,-0.57036 -0.50964,-1.25339 -0.50964,-1.51786 0,-0.26446 -0.16071,-0.48084 -0.35714,-0.48084 -0.19643,0 -0.35714,-0.32143 -0.35714,-0.71429 0,-0.39285 -0.16072,-0.71428 -0.35714,-0.71428 -0.19643,0 -0.35715,-0.32143 -0.35715,-0.71429 0,-0.39286 -0.16071,-0.71428 -0.35714,-0.71428 -0.19643,0 -0.35714,-0.24618 -0.35714,-0.54707 0,-0.30089 -0.5625,-1.70658 -1.25,-3.12376 -0.6875,-1.41718 -1.25,-2.77814 -1.25,-3.02436 0,-0.24622 -0.16072,-0.44767 -0.35715,-0.44767 -0.19642,0 -0.35714,-0.32143 -0.35714,-0.71429 0,-0.39285 -0.16071,-0.71428 -0.35714,-0.71428 -0.19643,0 -0.35714,-0.32143 -0.35714,-0.71429 0,-0.39286 -0.1433,-0.71428 -0.31843,-0.71428 -0.17513,0 -0.42907,-0.44197 -0.56431,-0.98215 -0.13523,-0.54018 -1.41246,-3.39285 -2.83829,-6.33928 -1.42582,-2.94643 -2.81209,-5.91965 -3.0806,-6.60715 -0.26851,-0.6875 -0.93727,-2.11007 -1.48614,-3.16126 -0.54887,-1.0512 -0.99795,-1.97531 -0.99795,-2.05357 0,-0.0783 3.01444,-0.14231 6.69876,-0.14231 h 6.69876 l 0.47182,1.51786 c 0.47381,1.52423 1.26547,3.48251 1.87497,4.63801 0.17992,0.34108 0.32712,0.86341 0.32712,1.16071 0,0.29731 0.16071,0.54056 0.35714,0.54056 0.19643,0 0.35715,0.39231 0.35715,0.87178 0,0.47948 0.16071,0.97111 0.35714,1.09251 0.19643,0.1214 0.35714,0.53267 0.35714,0.91394 0,0.38126 0.16072,0.6932 0.35714,0.6932 0.19643,0 0.35715,0.3923 0.35715,0.87178 0,0.47948 0.14835,0.96347 0.32966,1.07553 0.18132,0.11206 0.44283,0.71894 0.58113,1.34864 0.1383,0.62969 0.37299,1.39124 0.52152,1.69233 0.14854,0.30109 0.44953,0.9894 0.66888,1.52958 l 0.79762,1.96429 c 0.21935,0.54017 0.54077,1.26121 0.71428,1.60229 0.17352,0.34109 0.31548,0.86341 0.31548,1.16072 0,0.29731 0.16071,0.54056 0.35714,0.54056 0.19643,0 0.35714,0.23351 0.35714,0.51891 0,1.00658 0.8367,2.33823 1.46915,2.33823 0.62576,0 1.12822,-0.84887 2.11398,-3.57143 0.61448,-1.69712 1.40796,-3.61926 1.80404,-4.37015 0.17992,-0.34109 0.32712,-0.86341 0.32712,-1.16072 0,-0.2973 0.16071,-0.54056 0.35714,-0.54056 0.19643,0 0.35715,-0.24325 0.35715,-0.54056 0,-0.29731 0.14758,-0.81963 0.32796,-1.16071 0.80155,-1.5157 1.86089,-4.15372 2.05229,-5.11073 0.11497,-0.57483 0.34966,-1.04514 0.52153,-1.04514 0.17188,0 0.3125,-0.24325 0.3125,-0.54056 0,-0.29731 0.14721,-0.81963 0.32712,-1.16071 0.2973,-0.56363 0.55045,-1.13984 1.99844,-4.54873 0.25031,-0.58929 0.54763,-1.35268 0.66071,-1.69643 0.18509,-0.56263 0.81088,-0.625 6.27162,-0.625 h 6.06603 l -0.48672,0.98214 c -1.90195,3.83784 -2.69434,5.61191 -2.69434,6.03231 0,0.26706 -0.12148,0.48555 -0.26996,0.48555 -0.14848,0 -0.49513,0.52232 -0.77033,1.16072 -0.27521,0.63839 -0.87694,1.95418 -1.33719,2.92398 -0.46024,0.9698 -0.83681,1.97426 -0.83681,2.23214 0,0.25788 -0.16071,0.46888 -0.35714,0.46888 -0.19643,0 -0.35714,0.32142 -0.35714,0.71428 0,0.39286 -0.16072,0.71429 -0.35715,0.71429 -0.19642,0 -0.35714,0.19947 -0.35714,0.44326 0,0.2438 -0.54664,1.56969 -1.21477,2.94643 -0.66813,1.37674 -2.19857,4.59245 -3.40099,7.14602 -1.20242,2.55357 -2.42363,5.09785 -2.7138,5.65394 -0.29017,0.5561 -0.52758,1.23914 -0.52758,1.51786 0,0.27873 -0.16072,0.50677 -0.35714,0.50677 -0.19643,0 -0.35715,0.5625 -0.35715,1.25 0,0.6875 0.12159,1.25 0.27019,1.25 0.1486,0 0.47401,0.65307 0.72312,1.45127 0.24912,0.7982 1.02733,2.68659 1.72935,4.19643 1.64694,3.54205 2.42013,5.26552 3.15423,7.03087 0.32673,0.78572 0.90595,2.04644 1.28716,2.80161 0.3812,0.75517 0.6931,1.59892 0.6931,1.875 0,0.27608 0.16071,0.50197 0.35714,0.50197 0.19643,0 0.35714,0.22588 0.35714,0.50196 0,0.27608 0.34425,1.20019 0.765,2.05357 0.42075,0.85338 0.89412,1.87304 1.05193,2.26589 0.6874,1.71123 1.90387,4.46871 2.99353,6.78572 0.64665,1.375 1.44376,3.14286 1.77136,3.92857 0.3276,0.78571 0.74993,1.70982 0.93851,2.05357 0.32112,0.58536 -0.0884,0.625 -6.45708,0.625 -6.16196,0 -6.81869,-0.0586 -6.9997,-0.625 -0.2011,-0.62922 -0.56239,-1.55222 -1.1883,-3.03571 -0.55836,-1.32341 -2.57796,-7.17128 -2.77518,-8.03572 -0.10084,-0.44196 -0.32532,-0.80357 -0.49885,-0.80357 -0.17353,0 -0.3155,-0.32361 -0.3155,-0.71913 0,-0.39552 -0.14197,-0.9982 -0.31548,-1.33929 -0.17351,-0.34108 -0.49494,-1.06211 -0.71428,-1.60229 -0.21935,-0.54018 -0.54805,-1.34375 -0.73046,-1.78572 -0.1824,-0.44196 -0.60394,-1.6875 -0.93675,-2.76785 -0.33282,-1.08036 -0.74608,-2.11697 -0.91836,-2.30358 -0.17229,-0.1866 -0.31325,-0.69944 -0.31325,-1.13963 0,-0.44019 -0.16071,-0.89968 -0.35714,-1.02108 -0.19643,-0.1214 -0.35714,-0.50776 -0.35714,-0.85858 0,-0.35082 -0.32399,-0.93106 -0.71997,-1.28942 -0.69759,-0.63131 -0.73608,-0.63026 -1.23864,0.0339 -0.28527,0.37702 -0.52379,0.88857 -0.53003,1.13677 -0.006,0.2482 -0.15332,0.73034 -0.32684,1.07143 -0.29255,0.57509 -0.61872,1.34581 -1.43382,3.38801 -0.1764,0.44196 -0.55708,1.36607 -0.84596,2.05357 -0.28888,0.6875 -0.74214,2.01339 -1.00724,2.94643 -0.26511,0.93304 -0.60764,1.69643 -0.76118,1.69643 -0.15355,0 -0.27918,0.40179 -0.27918,0.89286 0,0.49107 -0.16071,0.89286 -0.35714,0.89286 -0.19643,0 -0.35714,0.40178 -0.35714,0.89285 0,0.49107 -0.16072,0.89286 -0.35715,0.89286 -0.19643,0 -0.35714,0.24325 -0.35714,0.54056 0,0.29731 -0.15073,0.81963 -0.33495,1.16072 -0.18423,0.34108 -0.75961,1.82551 -1.27864,3.29872 -0.51902,1.47321 -1.07804,3 -1.24225,3.39286 -0.16421,0.39285 -0.51198,1.2366 -0.77283,1.875 l -0.47427,1.16071 h -6.54103 c -3.59757,0 -6.48103,-0.12053 -6.40769,-0.26786 z"
         style="fill:#ffffff;stroke-width:0.35714287" />
      <path
         transform="matrix(0.26458333,0,0,0.26458333,-129.81149,101.94835)"
         inkscape:connector-curvature="0"
         id="path25"
         d="m 214.33545,309.26633 v -4.10714 h 22.32142 22.32143 v 4.10714 4.10714 h -22.32143 -22.32142 z"
         style="fill:#ffffff;stroke-width:0.35714287" />
      <path
         transform="matrix(0.26458333,0,0,0.26458333,-129.81149,101.94835)"
         inkscape:connector-curvature="0"
         id="path27"
         d="m 273.62116,306.76633 v -36.25 h 16.58606 c 10.67214,0 16.66477,0.12735 16.8068,0.35714 0.1214,0.19643 0.60023,0.35715 1.06406,0.35715 1.56463,0 5.64111,2.40382 6.88237,4.0584 0.63839,0.85097 1.16071,1.73238 1.16071,1.95869 0,0.22631 0.16071,0.41148 0.35714,0.41148 0.19643,0 0.35715,0.28928 0.35715,0.64286 0,0.35357 0.14197,0.79553 0.31551,0.98214 1.26105,1.35608 1.86927,12.39396 0.91411,16.58928 -0.33541,1.47322 -0.74929,2.83125 -0.91973,3.01786 -0.17044,0.18661 -0.30989,0.54638 -0.30989,0.79949 0,1.02944 -4.36409,5.46837 -5.37616,5.46837 -0.2024,0 -0.67852,0.28929 -1.05805,0.64288 -0.68172,0.63512 -0.68149,0.6502 0.019,1.25 0.38998,0.33392 0.9483,0.60712 1.24069,0.60712 0.2924,0 0.53164,0.12148 0.53164,0.26996 0,0.14848 0.47724,0.48121 1.06055,0.7394 2.0586,0.91123 3.95034,3.1527 4.74471,5.62188 1.13496,3.52787 1.33759,6.16498 1.33759,17.40812 v 11.31778 h -6.2319 -6.23191 l -0.16153,-11.69643 c -0.16031,-11.60743 -0.36894,-14.73214 -0.98362,-14.73214 -0.17579,0 -0.31963,-0.32368 -0.31963,-0.71929 0,-1.04138 -1.36392,-2.96325 -2.74588,-3.86915 -1.14771,-0.75234 -1.49007,-0.77912 -8.77777,-0.6865 l -7.58349,0.0964 -0.093,15.80357 -0.093,15.80357 h -6.24629 -6.24628 z m 28.65594,-4.19643 c 1.84661,-1.04469 2.93633,-2.57903 4.22706,-5.95177 0.62573,-1.63505 0.62989,-9.83799 0.006,-11.48931 -0.81463,-2.15559 -1.22775,-2.98089 -2.0856,-4.16643 -1.52194,-2.10333 -2.11993,-2.23177 -10.39014,-2.23177 -6.49089,0 -7.50818,0.0747 -7.69631,0.56492 -0.29654,0.77278 -0.2762,23.18518 0.0213,23.4827 0.46072,0.46072 15.07327,0.26947 15.91784,-0.20834 z"
         style="fill:#ffffff;stroke-width:0.35714287" />
      <path
         transform="matrix(0.26458333,0,0,0.26458333,-129.81149,101.94835)"
         inkscape:connector-curvature="0"
         id="path29"
         d="m 331.83545,342.48062 c 0,-0.29465 0.16071,-0.53572 0.35714,-0.53572 0.19643,0 0.35714,-0.71373 0.35714,-1.58606 0,-0.87234 0.16072,-1.68539 0.35714,-1.80679 0.19643,-0.1214 0.35715,-0.82196 0.35715,-1.5568 0,-0.73483 0.14425,-1.48874 0.32056,-1.67535 0.17631,-0.1866 0.4059,-0.98214 0.51021,-1.76785 0.1043,-0.78572 0.44504,-2.71429 0.75719,-4.28572 0.31215,-1.57143 0.66583,-3.62388 0.78595,-4.56102 0.12012,-0.93713 0.35834,-1.79036 0.52938,-1.89607 0.17105,-0.10572 0.31099,-0.90594 0.31099,-1.77827 0,-0.87234 0.16072,-1.58607 0.35715,-1.58607 0.19642,0 0.35714,-0.71373 0.35714,-1.58606 0,-0.87234 0.16071,-1.68539 0.35714,-1.80679 0.19643,-0.1214 0.35714,-0.82196 0.35714,-1.5568 0,-0.73483 0.14426,-1.48874 0.32057,-1.67535 0.17631,-0.1866 0.40292,-0.98214 0.50359,-1.76785 0.10067,-0.78572 0.4507,-2.71429 0.77785,-4.28572 0.32716,-1.57143 0.68294,-3.70089 0.79063,-4.73214 0.1077,-1.03125 0.33663,-1.875 0.50873,-1.875 0.17211,0 0.31292,-0.72322 0.31292,-1.60714 0,-0.88393 0.16071,-1.60715 0.35714,-1.60715 0.19643,0 0.35715,-0.71373 0.35715,-1.58606 0,-0.87234 0.16071,-1.68539 0.35714,-1.80679 0.19643,-0.1214 0.35714,-0.82196 0.35714,-1.5568 0,-0.73483 0.14425,-1.48874 0.32056,-1.67535 0.17631,-0.1866 0.40293,-0.98214 0.5036,-1.76785 0.10066,-0.78572 0.4507,-2.71429 0.77785,-4.28572 0.32715,-1.57143 0.68294,-3.70089 0.79063,-4.73214 0.1077,-1.03125 0.33662,-1.875 0.50873,-1.875 0.1721,0 0.31292,-0.72322 0.31292,-1.60714 0,-0.88393 0.16071,-1.60715 0.35714,-1.60715 0.19643,0 0.35714,-0.69107 0.35714,-1.53571 0,-0.84464 0.19286,-1.72857 0.42857,-1.96429 0.30976,-0.30975 2.82847,-0.42857 9.08526,-0.42857 h 8.65669 l 0.22203,1.69643 c 0.12212,0.93304 0.37304,2.0656 0.5576,2.51681 0.18456,0.4512 0.33557,1.36582 0.33557,2.03249 0,0.66666 0.16071,1.31144 0.35714,1.43284 0.19643,0.1214 0.35714,0.84462 0.35714,1.60715 0,0.76253 0.16072,1.48574 0.35715,1.60714 0.19642,0.1214 0.35714,0.84461 0.35714,1.60714 0,0.76253 0.16071,1.48575 0.35714,1.60714 0.19643,0.1214 0.35714,0.82732 0.35714,1.5687 0,0.74138 0.12008,1.46804 0.26683,1.6148 0.14676,0.14675 0.47833,1.57979 0.73684,3.18452 0.50712,3.14798 0.88058,5.11536 1.50303,7.9177 0.21815,0.98214 0.48306,2.42857 0.5887,3.21428 0.10563,0.78572 0.3363,1.58125 0.51261,1.76786 0.17631,0.18661 0.32057,0.95 0.32057,1.69643 0,0.74643 0.16071,1.35714 0.35714,1.35714 0.19643,0 0.35714,0.72322 0.35714,1.60715 0,0.88392 0.16072,1.60714 0.35714,1.60714 0.19643,0 0.35715,0.55793 0.35715,1.23985 0,1.28907 0.86196,5.98622 1.44835,7.89265 0.18555,0.60323 0.33736,1.59821 0.33736,2.21106 0,0.61286 0.16072,1.21361 0.35714,1.33501 0.19643,0.1214 0.35715,0.84461 0.35715,1.60714 0,0.76253 0.16071,1.48575 0.35714,1.60715 0.19643,0.1214 0.35714,0.84461 0.35714,1.60714 0,0.76253 0.16072,1.48574 0.35715,1.60714 0.19642,0.1214 0.35714,0.93446 0.35714,1.80679 0,0.87234 0.16071,1.58607 0.35714,1.58607 0.19643,0 0.35714,0.60374 0.35714,1.34164 0,0.73791 0.16485,1.90308 0.36633,2.58929 0.20148,0.6862 0.50103,2.13157 0.66567,3.21193 0.16463,1.08035 0.41877,2.24553 0.56474,2.58928 0.24729,0.58236 -0.18804,0.625 -6.37995,0.625 h -6.64536 v -1.94321 c 0,-1.06876 -0.16071,-2.04253 -0.35714,-2.16393 -0.19643,-0.1214 -0.35714,-1.08569 -0.35714,-2.14286 0,-1.05717 -0.16072,-2.02146 -0.35715,-2.14286 -0.19642,-0.1214 -0.35714,-1.16604 -0.35714,-2.32142 0,-1.15539 -0.16071,-2.20003 -0.35714,-2.32143 -0.19643,-0.1214 -0.35714,-0.69339 -0.35714,-1.27108 v -1.05035 h -8.49736 -8.49736 l -0.43121,1.61227 c -0.23717,0.88674 -0.43122,2.2137 -0.43122,2.94878 0,0.73509 -0.15457,1.8755 -0.3435,2.53425 -0.18893,0.65875 -0.45297,2.78715 -0.58677,4.72978 l -0.24327,3.53206 h -6.73466 c -5.74826,0 -6.73465,-0.0785 -6.73465,-0.53571 z m 30.88602,-25.98215 c -0.14286,-1.62053 -0.40066,-3.31849 -0.57289,-3.77325 -0.17222,-0.45475 -0.31313,-1.61044 -0.31313,-2.5682 0,-0.95777 -0.16072,-1.84072 -0.35715,-1.96212 -0.19643,-0.1214 -0.35714,-1.16604 -0.35714,-2.32143 0,-1.15538 -0.16071,-2.20002 -0.35714,-2.32142 -0.19643,-0.1214 -0.35715,-1.08569 -0.35715,-2.14286 0,-1.05717 -0.16071,-2.02146 -0.35714,-2.14286 -0.19643,-0.1214 -0.35714,-1.16604 -0.35714,-2.32143 0,-1.15538 -0.16072,-2.20003 -0.35714,-2.32143 -0.19643,-0.12139 -0.35836,-0.89427 -0.35985,-1.7175 -10e-4,-0.82323 -0.17424,-2.54142 -0.38391,-3.81821 -0.20967,-1.27679 -0.5243,-3.36607 -0.69919,-4.64286 -0.75352,-5.5012 -0.76193,-5.52447 -2.0392,-5.64762 -1.03033,-0.0994 -1.16071,-0.0115 -1.16071,0.78249 0,0.49192 -0.16072,0.99373 -0.35714,1.11513 -0.19643,0.1214 -0.35715,1.08569 -0.35715,2.14286 0,1.05717 -0.16071,2.02146 -0.35714,2.14286 -0.19643,0.1214 -0.35714,1.14338 -0.35714,2.27108 0,1.12769 -0.14658,2.20302 -0.32572,2.38963 -0.17915,0.18661 -0.41357,1.22322 -0.52094,2.30357 -0.10737,1.08036 -0.35641,3.00893 -0.55342,4.28572 -0.19701,1.27678 -0.53287,3.44643 -0.74635,4.82143 -0.21348,1.375 -0.58126,4.21483 -0.81729,6.31074 -0.23603,2.0959 -0.54968,3.93072 -0.697,4.07738 -0.14732,0.14665 -0.26785,1.20414 -0.26785,2.34997 0,1.1508 -0.15987,2.08333 -0.35715,2.08333 -0.19643,0 -0.35714,0.80358 -0.35714,1.78572 v 1.78571 h 7.18003 7.18003 z"
         style="fill:#ffffff;stroke-width:0.35714287" />
      <path
         transform="matrix(0.26458333,0,0,0.26458333,-129.81149,101.94835)"
         inkscape:connector-curvature="0"
         id="path31"
         d="m 408.54777,329.35562 c -0.0719,-9.3378 -0.23327,-13.88675 -0.50994,-14.375 -0.22262,-0.39286 -0.58423,-1.15625 -0.80357,-1.69643 l -0.79763,-1.96429 c -0.21934,-0.54018 -0.52034,-1.22849 -0.66887,-1.52958 -0.14853,-0.30109 -0.38322,-1.06264 -0.52152,-1.69233 -0.13831,-0.62969 -0.39981,-1.23658 -0.58113,-1.34864 -0.18132,-0.11206 -0.32966,-0.44309 -0.32966,-0.73563 0,-0.29254 -0.32143,-1.19717 -0.71429,-2.01029 -0.39286,-0.81312 -0.71429,-1.76965 -0.71429,-2.12561 0,-0.35596 -0.16071,-0.6472 -0.35714,-0.6472 -0.19643,0 -0.35714,-0.24325 -0.35714,-0.54056 0,-0.29731 -0.14197,-0.81963 -0.31548,-1.16072 -0.75109,-1.47648 -2.89881,-7.30077 -2.89881,-7.86114 0,-0.24067 -0.16071,-0.43758 -0.35714,-0.43758 -0.19643,0 -0.35714,-0.40179 -0.35714,-0.89286 0,-0.49107 -0.16072,-0.89286 -0.35715,-0.89286 -0.19642,0 -0.35714,-0.31194 -0.35714,-0.6932 0,-0.38127 -0.16071,-0.79254 -0.35714,-0.91394 -0.19643,-0.1214 -0.35714,-0.61303 -0.35714,-1.09251 0,-0.47947 -0.12054,-0.87315 -0.26786,-0.87483 -0.14732,-0.002 -0.57727,-1.00614 -0.95543,-2.23214 -0.37816,-1.226 -0.80138,-2.47016 -0.94047,-2.76481 -0.1391,-0.29464 -0.45112,-1.01785 -0.69339,-1.60714 -0.24226,-0.58928 -0.58244,-1.3505 -0.75595,-1.69158 -0.17351,-0.34109 -0.31548,-0.86341 -0.31548,-1.16071 0,-0.29731 -0.16071,-0.54057 -0.35714,-0.54057 -0.19643,0 -0.35714,-0.38839 -0.35714,-0.86309 0,-0.4747 -0.12054,-0.91667 -0.26786,-0.98214 -0.14732,-0.0655 -0.52919,-0.88244 -0.8486,-1.81548 l -0.58074,-1.69643 h 6.79137 c 7.4621,0 7.72668,0.0762 7.75161,2.23214 0.006,0.54018 0.17208,0.98215 0.3685,0.98215 0.19643,0 0.35715,0.33141 0.35715,0.73646 0,0.40506 0.25068,1.57024 0.55706,2.58929 0.30639,1.01905 0.72384,2.49568 0.92767,3.28139 0.20383,0.78571 0.51565,1.70764 0.69293,2.04873 0.17729,0.34108 0.32234,0.93427 0.32234,1.3182 0,0.38393 0.16071,0.79739 0.35714,0.91878 0.19643,0.1214 0.35714,0.69339 0.35714,1.27108 0,0.5777 0.16072,1.05035 0.35715,1.05035 0.19642,0 0.35714,0.47266 0.35714,1.05035 0,0.5777 0.16071,1.14968 0.35714,1.27108 0.19643,0.1214 0.35714,0.6839 0.35714,1.25 0,0.5661 0.16072,1.1286 0.35715,1.25 0.19643,0.1214 0.35714,0.52706 0.35714,0.90146 0,0.3744 0.2179,1.36937 0.48422,2.21106 0.26632,0.84169 0.68377,2.25355 0.92767,3.13748 0.24389,0.88393 0.58849,1.88621 0.76578,2.2273 0.17728,0.34108 0.32233,0.93428 0.32233,1.31821 0,0.38393 0.16071,0.79738 0.35714,0.91878 0.19643,0.1214 0.35715,0.6245 0.35715,1.11801 0,0.87174 0.71771,1.9177 1.31587,1.9177 0.34318,0 0.89839,-1.29398 1.53241,-3.57143 0.24608,-0.88393 0.57231,-1.92857 0.72495,-2.32143 0.64471,-1.65931 1.42677,-4.60665 1.42677,-5.37707 0,-0.45692 0.16071,-0.9301 0.35714,-1.0515 0.19643,-0.1214 0.35714,-0.69338 0.35714,-1.27107 0,-0.5777 0.16072,-1.05036 0.35714,-1.05036 0.19643,0 0.35715,-0.47265 0.35715,-1.05035 0,-0.57769 0.16071,-1.14967 0.35714,-1.27107 0.19643,-0.1214 0.35714,-0.53485 0.35714,-0.91878 0,-0.38393 0.14505,-0.97713 0.32234,-1.31821 0.17728,-0.34109 0.52188,-1.34337 0.76577,-2.2273 0.2439,-0.88393 0.66135,-2.29579 0.92767,-3.13748 0.26632,-0.84169 0.48422,-1.83667 0.48422,-2.21107 0,-0.3744 0.16072,-0.78005 0.35715,-0.90145 0.19642,-0.1214 0.35714,-0.6839 0.35714,-1.25 0,-0.5661 0.16071,-1.1286 0.35714,-1.25 0.19643,-0.1214 0.35714,-0.69338 0.35714,-1.27108 0,-0.57769 0.15054,-1.05035 0.33452,-1.05035 0.18398,0 0.38487,-0.52232 0.44643,-1.16071 l 0.11191,-1.16072 6.875,-0.097 c 3.78125,-0.0534 6.87487,0.027 6.87471,0.17857 -3.6e-4,0.43564 -1.24897,3.60816 -1.53091,3.8901 -0.13998,0.13998 -0.25451,0.62951 -0.25451,1.08785 0,0.45833 -0.16072,0.83333 -0.35715,0.83333 -0.19642,0 -0.35714,0.24325 -0.35714,0.54056 0,0.29731 -0.14312,0.81963 -0.31806,1.16072 -1.28015,2.49606 -3.61051,8.49117 -3.61051,9.28844 0,0.24137 -0.16071,0.43885 -0.35714,0.43885 -0.19643,0 -0.35715,0.24325 -0.35715,0.54056 0,0.29731 -0.1472,0.81963 -0.32711,1.16072 -0.9641,1.82774 -3.60146,8.61818 -3.60146,9.27272 0,0.25001 -0.16071,0.45457 -0.35714,0.45457 -0.19643,0 -0.35714,0.40179 -0.35714,0.89286 0,0.49107 -0.16072,0.89286 -0.35715,0.89286 -0.19642,0 -0.35714,0.24325 -0.35714,0.54056 0,0.29731 -0.14758,0.81963 -0.32796,1.16071 -0.59573,1.1265 -1.71752,3.81933 -1.96932,4.7273 -0.26055,0.93949 -0.78678,2.25875 -1.31582,3.29872 -0.17351,0.34109 -0.31547,0.86341 -0.31547,1.16072 0,0.29731 -0.16071,0.54056 -0.35714,0.54056 -0.19643,0 -0.35715,0.24325 -0.35715,0.54056 0,0.29731 -0.16071,0.85981 -0.35714,1.25 -0.19643,0.39019 -0.51786,1.02869 -0.71428,1.41888 -0.21889,0.4348 -0.35715,5.82687 -0.35715,13.92857 v 13.21913 h -6.41268 -6.41267 z"
         style="fill:#ffffff;stroke-width:0.35714287" />
    </g>
  </g>
</svg>
